<svg version="1.2" xmlns="http://www.w3.org/2000/svg" viewBox="0 0 646 1006" width="646" height="1006">
	<style>
		.s0 { opacity: .56;fill: #5ba466 } 
		.s1 { opacity: .99;fill: #d5eec9 } 
		.s2 { opacity: .99;fill: #5fab6b } 
		.s3 { opacity: 1;fill: #ffffff } 
	</style>
	<g id="Background">
		<path id="Path 0" class="s0" d="m88.5 105.75c12.65 0.16 32.9 0.16 45 0 12.1-0.16 1.75-0.29-23-0.29-24.75 0-34.65 0.13-22 0.29zm424 0c12.1 0.16 32.13 0.16 44.5 0 12.38-0.16 2.48-0.29-22-0.29-24.48 0-34.6 0.13-22.5 0.29z"/>
		<path id="Path 1" class="s1" d="m175 92.01c-8.28 0.41-11.11 0.94-13.36 2.5-1.58 1.1-3.71 3.34-4.74 4.99-1.77 2.83-1.86 5.46-1.64 46.5l0.24 43.5c4.65 9.15 7.57 13.17 9.5 14.83 1.93 1.66 5.75 4.06 8.5 5.33l5 2.32c288.33-0.02 289.02-0.03 293.5-2.09 2.48-1.13 6.08-3.31 8-4.84 1.92-1.52 5.08-5.65 7-9.16l3.5-6.39 0.52-87c-4.28-5.89-6.98-8.25-8.77-9.05-2.78-1.24-24.35-1.49-150-1.7-80.71-0.14-151.48-0.02-157.25 0.26z"/>
		<path id="Path 2" class="s2" d="m313.5 1.04c-3.85 0.45-8.35 1.25-10 1.76-1.65 0.51-5.48 1.97-8.5 3.25-3.02 1.28-8.2 4-11.5 6.04-3.3 2.04-9.38 7.29-13.5 11.67-4.13 4.38-9.07 10.61-10.99 13.85-1.92 3.24-4.51 8.7-5.75 12.14-1.24 3.44-2.71 10.19-3.25 15-0.55 4.81-1 12.91-1 18l-0.01 9.25 32.5-0.01c0.19-17 0.83-22.36 1.99-25.99 0.97-3.02 3.23-7.97 5.02-11 1.79-3.03 5.26-7.3 7.72-9.5 2.45-2.2 7.12-5.3 10.37-6.88 3.24-1.59 8.83-3.34 12.4-3.91 4.65-0.74 8.21-0.7 12.5 0.12 3.3 0.63 8.92 2.58 12.5 4.34 3.77 1.85 8.84 5.53 12.07 8.76 3.06 3.06 6.73 8.04 8.16 11.07 1.42 3.02 3.3 8.2 4.16 11.5 0.87 3.3 1.58 9.49 1.59 13.75l0.02 7.75 32.5 0.01c-1.07-22.25-2.1-31.14-3.03-34.51-0.91-3.3-3.12-9.15-4.91-13-1.79-3.85-5.46-9.9-8.16-13.43-2.69-3.54-8.05-9.09-11.9-12.32-3.85-3.24-11.05-7.88-16-10.32-4.95-2.43-11.7-5.07-15-5.85-3.3-0.79-9.83-1.64-14.5-1.9-4.67-0.26-11.65-0.1-15.5 0.36zm-259.5 106.88c-3.03 1-7.75 2.82-10.5 4.05-2.75 1.22-7.47 3.92-10.5 5.98-3.03 2.07-8.65 7.11-12.5 11.21-4.28 4.55-8.63 10.54-11.18 15.39-2.3 4.37-5.22 11.55-6.5 15.95l-2.32 8c0 760.15 0.06 773.23 1.86 780 1.02 3.85 3.55 10.6 5.61 15 2.07 4.4 5.96 10.91 8.64 14.46 2.69 3.55 7.82 8.84 11.39 11.76 3.57 2.92 9.88 7.03 14 9.14 4.12 2.11 11.1 4.69 15.5 5.74 7.75 1.84 15.96 1.9 266 1.9 214.28 0 259.02-0.23 264-1.36 3.3-0.75 8.7-2.58 12-4.06 3.3-1.49 8.7-4.53 12-6.77 3.3-2.24 8.79-6.94 12.19-10.44 3.41-3.5 7.06-7.5 8.12-8.87 1.06-1.38 3.33-5.31 5.06-8.75 1.72-3.44 4.37-9.74 5.88-14l2.75-7.75v-779c-4.26-12.4-7.37-19.15-9.65-23-2.29-3.85-7.8-10.62-12.25-15.05-4.46-4.43-11.25-9.91-15.1-12.18-3.85-2.28-9.92-5.18-13.5-6.45-6.41-2.29-7.17-2.32-55.34-2.61l-48.84-0.28-0.32 83.57c-5.42 9.9-8.58 14.03-10.5 15.55-1.92 1.53-5.52 3.71-8 4.84-4.48 2.06-5.17 2.07-149 2.08l-144.5 0.01c-7.75-3.59-11.57-5.99-13.5-7.65-1.93-1.66-4.85-5.68-6.5-8.92l-3-5.91-0.34-83.5c-91.26 0.1-96.17 0.27-101.16 1.92z"/>
		<path id="Path 3" class="s3" d="m146.75 315.58c-3.16 0.78-7.66 2.7-10 4.27-2.34 1.56-5.82 4.66-7.75 6.89-1.93 2.22-4.4 6.23-5.5 8.9-1.98 4.8-2 7.47-2.28 228.36l-0.27 223.5c3.37 9.3 5.26 13.35 6.38 15 1.12 1.65 3.84 4.58 6.04 6.5 2.21 1.92 6.74 4.57 10.07 5.88l6.06 2.37c254.2 0.51 332.73 0.29 338.5-0.17 8.62-0.67 11.57-1.35 16.5-3.81 3.78-1.88 7.75-4.98 10.75-8.38 3.08-3.5 5.46-7.5 6.76-11.39 1.99-5.94 2.01-8.37 2-226.75-0.01-183.19-0.24-221.64-1.37-226-0.75-2.89-2.18-6.83-3.17-8.75-0.98-1.92-3.63-5.37-5.88-7.65-2.25-2.28-6.79-5.43-10.09-7l-6-2.85c-318.79-0.32-345.87-0.13-350.75 1.08z"/>
		<path id="Path 4" class="s2" d="m198.5 439.01c-1.65 1.09-3.77 3.45-4.71 5.24-0.94 1.79-1.73 4.49-1.75 6-0.02 1.51 0.55 4.21 1.28 6 0.72 1.79 2.75 4.26 4.5 5.5l3.18 2.25 246.15-0.5c6.32-6.92 6.85-8.24 6.85-12.25-0.01-2.99-0.75-5.95-2-8-1.1-1.79-3.58-3.92-5.5-4.75-3.05-1.31-19.13-1.5-124.25-1.49-118.92 0-120.8 0.03-123.75 2zm-0.66 99.24c-1.47 1.24-3.43 3.83-4.36 5.75-1.16 2.41-1.48 4.59-1.01 7 0.37 1.92 1.65 4.96 2.85 6.73 1.2 1.78 3.53 3.7 5.18 4.27 2 0.69 43.17 1.03 123.25 1.02 104.87-0.02 120.63-0.21 123.25-1.52 1.65-0.83 3.89-2.96 4.97-4.75 1.08-1.79 1.98-5.05 2-7.25 0.01-2.29-0.83-5.39-1.97-7.25-1.1-1.79-3.35-3.92-5-4.75-2.62-1.31-18.52-1.5-124.75-1.5l-121.75 0.01zm0.41 93.75c-1.79 1.1-3.95 3.67-4.82 5.74-1.12 2.64-1.36 4.94-0.84 7.75 0.44 2.41 2.04 5.4 4 7.5l3.26 3.5h135.31c6.42-7.03 6.84-8.15 6.83-12.75-0.02-3.77-0.65-6.15-2.25-8.48-1.23-1.78-3.59-3.7-5.24-4.27-1.94-0.66-25.88-1.02-68-1.01-63.18 0.02-65.09 0.08-68.25 2.02z"/>
	</g>
</svg>