<svg version="1.2" xmlns="http://www.w3.org/2000/svg" viewBox="0 0 307 407" width="307" height="407">
	<style>
		.s0 { opacity: .98;fill: #5ea171 } 
	</style>
	<path id="Path 0" fill-rule="evenodd" class="s0" d="m134.4 0.03c21.44 0.02 24.3 0.21 25.88 1.75 1.18 1.13 1.77 3.17 1.75 5.97-0.02 2.34-2.29 19.66-5.05 38.5-2.75 18.84-5.68 38.52-6.49 43.75-0.81 5.23-1.48 9.84-1.48 10.25-0.01 0.41 12.36 0.75 27.49 0.75 17.67 0 27.5-0.36 27.5-1 0-0.55 1.11-8.31 2.46-17.25 1.36-8.94 4.3-28.85 6.54-44.25 2.25-15.4 4.85-29.74 5.79-31.87 0.95-2.15 2.94-4.49 4.46-5.25 2.09-1.05 8.29-1.38 26-1.4 21.93-0.02 23.38 0.09 25.5 2 1.57 1.41 2.25 3.15 2.25 5.77 0 2.06-1.59 15-3.54 28.75-1.95 13.75-4.64 32.42-5.98 41.5-1.35 9.08-2.68 17.96-3.48 23l18.25-0.03c18.16-0.04 18.26-0.03 21 2.5 1.51 1.39 3.2 3.66 3.75 5.03 0.55 1.38 1 10.94 0.99 21.25 0 10.31-0.45 20.44-1 22.5-0.54 2.06-2.23 4.78-3.74 6.04-2.63 2.19-3.79 2.33-25.75 3.05-12.65 0.41-23.09 0.84-23.2 0.95-0.11 0.12-1.55 8.76-3.2 19.21-1.64 10.45-4.16 27.1-5.6 37-1.44 9.9-2.82 19.01-3.5 22.5h58l7.5 6.84 0.33 20.33c0.28 16.84 0.07 20.97-1.25 24.08-0.87 2.06-2.8 4.54-4.28 5.5-2.4 1.55-6.54 1.81-69.74 2.75l-2.24 14c-1.24 7.7-3.19 20.52-4.34 28.5-1.15 7.98-3.44 23.5-5.09 34.5-1.64 11-3.19 20.9-3.44 22-0.25 1.1-1.62 3.13-3.03 4.5-2.58 2.5-2.58 2.5-25.75 2.82-22.95 0.31-23.2 0.29-26.07-2-1.6-1.28-3.25-3.22-3.67-4.32-0.45-1.18 1.44-17.42 4.59-39.5 2.95-20.62 6.06-42.11 6.92-47.75 0.86-5.64 1.56-10.92 1.56-11.75 0-1.3-3.78-1.5-56-1.5l-0.44 2.25c-0.24 1.24-1.36 8.33-2.49 15.75-1.13 7.42-3.86 26.33-6.08 42-2.21 15.67-4.58 31.38-5.26 34.9-0.99 5.15-1.87 6.96-7.73 12.1h-47l-2.68-2.75c-2.6-2.66-2.67-3-2.02-10.75 0.37-4.4 2.27-18.8 4.21-32 1.95-13.2 4.65-31.65 6.01-41 1.36-9.35 2.47-17.79 2.48-18.75 0-1.62-1.78-1.75-23.5-1.75-20.71 0-23.81-0.21-26.13-1.75-1.45-0.96-3.25-2.99-4-4.5-1.03-2.06-1.37-7.91-1.37-23.25 0-15.34 0.34-21.19 1.37-23.25 0.75-1.51 2.55-3.54 4-4.5 2.35-1.57 5.68-1.75 60.63-1.75l0.49-3.25c0.26-1.79 2.76-19 5.54-38.25 2.78-19.25 5.26-35.79 5.51-36.75 0.43-1.64-1.46-1.75-59.54-1.75l-7-6v-47l5.83-6.5 72.66-1 0.72-5.5c0.39-3.02 2.27-16.08 4.18-29 1.91-12.92 4.63-31.26 6.04-40.75 1.42-9.49 2.96-18.04 3.43-19 0.47-0.96 2.12-2.76 3.65-4 2.73-2.2 3.38-2.25 26.89-2.22zm2.16 163.22c-0.26 1.24-1.83 11.25-3.5 22.25-1.67 11-3.95 26.75-5.07 35-1.12 8.25-2.25 16.24-2.51 17.75l-0.48 2.75h58c0.74-5.81 1.88-14.25 3-22.5 1.13-8.25 3.39-23.77 5.02-34.5 1.63-10.73 2.96-20.29 2.97-21.25 0.01-1.63-2.01-1.75-28.47-1.75h-28.49z"/>
</svg>