<svg version="1.2" xmlns="http://www.w3.org/2000/svg" viewBox="0 0 1000 847" width="1000" height="847">
	<style>
		.s0 { fill: #f66718 } 
		.s1 { fill: #faece1 } 
	</style>
	<g id="Background">
		<path id="Path 0" class="s0" d="m87.5 1.08c-8.8 0.37-17.8 1.21-20 1.85-2.2 0.65-6.48 2.14-9.5 3.31-3.02 1.18-7.52 3.25-10 4.6-2.48 1.36-6.98 4.13-10 6.17-3.02 2.04-8.88 7.3-13 11.69-4.13 4.38-9.52 11.53-12 15.88-2.48 4.36-5.92 11.97-7.65 16.92-1.73 4.95-3.66 12.6-4.29 17-0.85 5.94-1.07 96.38-0.85 350.5l0.3 342.5c3.65 11.62 6.15 18.15 7.91 22 1.76 3.85 5.16 9.92 7.56 13.5 2.41 3.58 7.56 9.68 11.45 13.57 3.89 3.89 9.77 8.89 13.07 11.11 3.3 2.22 7.91 5 10.25 6.18 2.34 1.18 8.19 3.38 13 4.89l8.75 2.75c842.16 0 854.19-0.05 861-1.88 3.85-1.04 10.15-3.32 14-5.06 3.85-1.75 9.7-5.01 13-7.25 3.3-2.25 8.86-6.94 12.36-10.45 3.51-3.5 8.06-8.84 10.12-11.86 2.06-3.02 5.34-8.65 7.28-12.5 1.94-3.85 4.58-10.38 5.88-14.5l2.36-7.5v-585c-4.99-14.72-8.52-22.38-11.07-26.5-2.55-4.13-6.51-9.72-8.78-12.44-2.28-2.71-7.07-7.36-10.65-10.32-3.58-2.96-10.1-7.12-14.5-9.24-4.4-2.13-10.7-4.67-14-5.66-5.67-1.69-18.51-1.82-235-2.32l-229-0.52c-12.24-6.73-13.81-8.31-19.9-17.08-3.79-5.45-16.48-24.1-28.2-41.42-11.71-17.33-23.46-33.93-26.1-36.91-2.64-2.98-7.28-7.3-10.3-9.62-3.02-2.31-9.1-6.07-13.5-8.35-4.4-2.28-11.6-5.13-16-6.34l-8-2.2c-193.75-0.14-257.2 0.12-266 0.5z"/>
		<path id="Path 3" class="s1" d="m84 59.94c-1.38 0.42-4.86 1.95-7.75 3.41-2.89 1.46-7.05 4.45-9.25 6.65-2.2 2.2-5.37 6.14-7.04 8.75-1.67 2.61-3.93 7.67-5.02 11.25-1.91 6.27-1.98 9.52-1.96 90.25l0.02 83.75c8.91-5.25 15.33-7.98 20-9.44 4.73-1.49 11.82-2.86 16-3.1 4.13-0.23 192.23-0.65 418-0.93 262.22-0.32 413.57-0.15 419 0.47 4.67 0.54 10.88 1.54 13.78 2.24l5.28 1.26c-0.58-43.97-1.09-53.23-2-56-0.83-2.5-3.62-6.28-7.44-10.08-4.33-4.3-7.59-6.57-11.12-7.76-4.63-1.56-21.96-1.68-233.25-1.67-203.97 0.01-229.07-0.16-236-1.57-4.26-0.87-10.63-3-14.14-4.75-3.52-1.74-8.92-5.46-12-8.26-4.23-3.84-12.85-15.91-35-49-16.16-24.15-30.79-45.4-32.5-47.21-1.71-1.82-5.81-4.64-9.11-6.27l-6-2.97c-201.5 0.16-261.13 0.56-262.5 0.98z"/>
	</g>
</svg>