<svg version="1.2" xmlns="http://www.w3.org/2000/svg" viewBox="0 0 1097 1009" width="1097" height="1009">
	<style>
		.s0 { fill: #f96714 } 
		.s1 { fill: #f8f2ee } 
	</style>
	<g id="Background">
		<path id="Path 1" class="s0" d="m110.5 1.1c-21.78 0.52-25.97 0.88-32.5 2.81-4.13 1.22-11.55 4.15-16.5 6.5-4.95 2.35-12.6 6.97-17 10.27-4.4 3.29-10.93 9.1-14.51 12.9-3.58 3.81-8.63 10.29-11.21 14.42-2.58 4.13-6.47 11.55-8.63 16.5-2.16 4.95-5 13.28-6.29 18.5l-2.36 9.5v836c3.72 13.17 6.14 19.92 7.76 23.5 1.63 3.58 4.99 9.65 7.47 13.5 2.48 3.85 8.39 10.85 13.14 15.56 5.5 5.46 11.71 10.38 17.13 13.58 4.67 2.77 11.65 6.28 15.5 7.81 3.85 1.53 10.38 3.64 14.5 4.68 7.3 1.84 18.66 1.89 428 1.87 405.66-0.03 420.82-0.09 429.5-1.88 4.95-1.02 12.6-3.37 17-5.21 4.4-1.84 11.15-5.42 15-7.96 3.85-2.53 9.05-6.37 11.56-8.53 2.5-2.15 6.94-6.62 9.85-9.92 2.92-3.3 6.91-8.48 8.87-11.5 1.97-3.02 5.28-9.33 7.36-14 2.09-4.67 4.72-12.55 5.86-17.5 1.14-4.95 5.86-32.17 10.5-60.5 4.64-28.33 10.48-64.1 12.99-79.5 2.5-15.4 5.67-34.52 7.03-42.5 1.36-7.98 4.03-24.17 5.94-36 1.9-11.83 4.82-30.05 6.49-40.5 1.67-10.45 3.48-21.48 4.02-24.5 0.54-3.02 2.13-13.15 3.53-22.5 1.41-9.35 6.15-39.05 10.54-66 4.39-26.95 11.12-68.13 14.94-91.5 3.82-23.38 7.87-48.24 8.98-55.25 1.27-7.93 2.04-17.57 2.05-25.5 0.01-9.42-0.51-14.84-1.98-20.75-1.1-4.4-4.14-12.25-6.76-17.43-3.25-6.43-6.84-11.65-11.27-16.37-3.58-3.82-9.65-8.87-13.5-11.24-3.85-2.37-9.92-5.3-13.5-6.51-4.16-1.41-10.28-2.43-17-2.83l-10.5-0.62c-1.04-86.85-1.45-97.24-2.73-102.5-0.87-3.57-2.92-9.88-4.56-14-1.64-4.13-4.03-9.3-5.3-11.5-1.27-2.2-4.12-6.47-6.33-9.5-2.22-3.03-5.61-7.25-7.55-9.4-1.94-2.14-6.9-6.46-11.03-9.6-4.12-3.15-10.88-7.41-15-9.49-4.12-2.07-11.77-4.94-17-6.38l-9.5-2.62-416-1.01c-10.27-5.05-15.19-8.62-18.2-11.69-4.28-4.37-8.34-11.26-22.88-38.81-9.73-18.43-19.73-36.42-22.23-40-2.49-3.58-8.85-10.81-14.12-16.09-6.2-6.21-12.56-11.4-18.07-14.76-4.68-2.84-12.1-6.47-16.5-8.06-4.4-1.6-11.6-3.63-16-4.53-7.11-1.45-22.19-1.65-136-1.85-70.4-0.11-139.25 0.06-153 0.39z"/>
		<path id="Path 2" class="s1" d="m115 72.63c-3.03 0.82-7.75 2.58-10.5 3.91-2.75 1.32-7.06 4.1-9.58 6.18-2.52 2.08-6.17 5.81-8.11 8.28-1.94 2.47-4.45 6.3-5.57 8.5-1.12 2.2-2.87 6.7-3.89 10-1.78 5.78-1.85 16.61-1.85 301.71 0 274.23 0.12 295.85 1.66 297.5 1.59 1.72 1.7 1.71 2.66-0.21 0.55-1.1 1.96-7.17 3.14-13.5 1.18-6.33 3.9-20.72 6.05-32 2.14-11.27 5.53-29.27 7.52-40 1.98-10.72 7.15-37.72 11.48-60 4.33-22.27 13.79-71.55 21.03-109.5 7.24-37.95 14.06-71.92 15.16-75.5 1.1-3.57 3.97-10.32 6.38-15 2.4-4.67 6.74-11.46 9.65-15.07 2.9-3.61 7.86-8.9 11.02-11.75 3.16-2.85 8.34-6.84 11.5-8.87 3.16-2.04 9.35-5.22 13.75-7.08 4.4-1.85 10.7-4.12 14-5.04 5.53-1.53 34.87-1.7 374-2.17l368-0.52c-0.17-65.53-0.58-80.19-1.32-82.5-0.61-1.92-2.48-5.41-4.15-7.75-1.83-2.57-5.11-5.34-8.28-7l-5.25-2.75-434-1c-12.01-4.26-17.19-6.34-19.25-7.38-2.06-1.03-7.13-4.55-11.25-7.82-4.13-3.28-9.44-8.62-11.81-11.88-2.37-3.26-12.81-22.12-23.19-41.92-10.39-19.8-20.83-39.32-23.2-43.37-2.51-4.3-7.01-9.92-10.82-13.5-3.66-3.43-9.37-7.51-13-9.28-3.56-1.73-9.18-3.64-12.48-4.25-4.2-0.78-43.15-1.09-130-1.04-106.91 0.06-124.76 0.28-129.5 1.57z"/>
	</g>
</svg>