<svg version="1.2" xmlns="http://www.w3.org/2000/svg" viewBox="220 222 960 240">
	<style>
		.s0 { opacity: 1;fill: #010101 } 
	</style>
	<path id="Path 0" class="s0" d="m302.5 226.65c-1.65 0.19-6.38 0.84-10.5 1.45-4.13 0.61-11.1 2.23-15.5 3.61-4.4 1.37-11.15 4.12-15 6.1-4.29 2.22-9.54 6.14-13.58 10.15-4.63 4.6-7.66 8.77-10.22 14.04-1.99 4.12-4.32 10.99-5.16 15.25-0.85 4.26-1.55 11.91-1.55 17-0.01 5.79 0.69 12.06 1.88 16.75 1.03 4.12 3.04 9.75 4.44 12.5 1.41 2.75 4.5 7.35 6.87 10.22 2.38 2.87 7.02 7.28 10.32 9.8 3.3 2.52 11.85 7.45 19 10.97 7.15 3.51 17.73 8.03 23.5 10.05 5.77 2.02 13.2 4.94 16.5 6.49 3.3 1.54 7.24 3.97 8.75 5.39 1.51 1.42 3.04 3.82 3.39 5.33 0.35 1.51 0.24 3.87-0.25 5.25-0.54 1.5-2.69 3.4-5.39 4.76-3.65 1.83-6.15 2.26-13.25 2.25-4.81-0.01-12.24-0.72-16.5-1.59-4.26-0.87-16.41-4.47-27-8-10.59-3.53-19.93-6.42-20.75-6.42-0.82 0-2.85 0.68-4.5 1.5-1.87 0.93-3.94 3.39-5.5 6.5-1.38 2.75-3.62 9.61-5 15.25-1.37 5.64-2.78 13.62-3.14 17.75-0.35 4.12-0.35 9.19 0 11.25 0.37 2.14 2.03 5.31 3.89 7.38 1.79 2 5.28 4.65 7.75 5.89 2.47 1.24 7.65 3.19 11.5 4.34 3.85 1.14 11.27 2.96 16.5 4.03 5.23 1.07 13.1 2.45 17.5 3.06 4.4 0.61 14.98 1.56 23.5 2.11 10.6 0.68 19.93 0.65 29.5-0.07 7.7-0.59 17.82-1.92 22.5-2.96 4.68-1.04 11.2-2.84 14.5-4 3.3-1.15 8.93-3.84 12.5-5.97 3.57-2.12 8.79-6.05 11.58-8.71 2.79-2.67 6.67-7.33 8.62-10.35 1.94-3.02 4.68-8.65 6.08-12.5 1.4-3.85 3-10.6 3.55-15 0.57-4.6 0.66-11.62 0.22-16.5-0.43-4.68-1.73-11.43-2.89-15-1.16-3.57-3.84-9.2-5.96-12.5-2.12-3.3-6.75-8.65-10.28-11.88-3.53-3.24-9.35-7.59-12.92-9.67-3.57-2.08-10.1-5.33-14.5-7.23-4.4-1.89-14.3-5.7-22-8.45-7.7-2.75-15.91-5.97-18.25-7.14-2.34-1.17-4.93-3.14-5.76-4.38-0.83-1.24-1.5-3.04-1.5-4 0.01-0.96 0.62-2.99 1.37-4.5 0.75-1.51 3.11-3.59 5.25-4.63 2.14-1.03 7.04-2.09 10.89-2.36 4.26-0.29 10.72 0.17 16.5 1.18 5.23 0.92 14 3.44 19.5 5.6 6.04 2.38 11.68 3.94 14.25 3.95 3.6 0.01 4.65-0.49 6.88-3.24 1.44-1.79 3.85-5.73 5.36-8.75 1.5-3.02 3.74-8.43 4.97-12 1.22-3.57 2.85-9.43 3.62-13 0.76-3.57 1.37-8.98 1.36-12-0.03-5.01-0.36-5.82-3.73-9.12-2.93-2.85-6.03-4.36-14.71-7.14-6.05-1.93-15.05-4.23-20-5.11-4.95-0.87-13.95-2.05-20-2.61-6.05-0.56-18.88-0.95-28.5-0.87-9.63 0.08-18.85 0.31-20.5 0.5zm552.5 0.43c-3.58 0.45-10.77 1.79-16 2.98-5.23 1.18-13.21 3.68-17.75 5.55-4.54 1.86-10.61 4.83-13.5 6.58-2.89 1.76-7.73 5.07-10.75 7.36-3.02 2.29-7.98 6.83-11 10.08-3.02 3.25-7.61 9.05-10.18 12.89-2.58 3.84-6.25 10.35-8.18 14.48-1.92 4.12-4.61 11.32-5.97 16-1.37 4.68-3.04 12.32-3.72 17-0.68 4.68-1.23 15.93-1.23 25 0.01 10.79 0.59 19.96 1.69 26.5 0.92 5.5 3.01 13.94 4.64 18.75 1.62 4.81 4.36 11.56 6.09 15 1.72 3.44 4.81 8.73 6.86 11.75 2.05 3.02 7.75 9.32 12.67 14 6.82 6.49 11.29 9.73 18.88 13.7 5.95 3.1 13.77 6.2 19.45 7.69 5.23 1.37 13.1 3.05 17.5 3.74 4.4 0.68 16.1 1.26 26 1.28 9.9 0.01 22.05-0.54 27-1.23 4.95-0.7 13.16-2.37 18.25-3.72 5.09-1.35 10.94-3.3 13-4.34 2.06-1.03 5.27-3.17 7.14-4.75 1.86-1.58 4.29-4.67 5.4-6.87 1.12-2.23 2.22-6.87 2.49-10.5 0.3-4.04-0.17-9.72-1.23-15-0.94-4.68-3.01-11.88-4.59-16-1.58-4.13-4.42-9.3-6.3-11.5-3.3-3.85-3.66-4-9.3-3.93-4.39 0.06-9.74 1.44-21.36 5.5-15.16 5.31-15.74 5.43-26.57 5.43-10.15 0-11.38-0.21-14.79-2.5-2.05-1.38-5.07-4.52-6.73-7-1.65-2.48-3.66-6.75-4.46-9.5-0.8-2.75-1.91-7.7-2.45-11-0.54-3.3-0.99-11.51-0.99-18.25-0.01-6.76 0.66-15.72 1.48-20 0.82-4.26 2.85-10.56 4.5-14 1.79-3.7 4.54-7.47 6.76-9.25 2.06-1.65 5.77-3.68 8.25-4.51 2.48-0.83 7.2-1.5 10.5-1.49 3.3 0.02 8.92 0.72 12.5 1.55 3.58 0.84 10.66 2.86 15.75 4.49 5.09 1.63 11.61 3.26 14.5 3.62 3.6 0.46 6.31 0.22 8.61-0.75 2.01-0.84 4.54-3.23 6.28-5.91 1.6-2.48 3.8-7.2 4.88-10.5 1.09-3.3 2.65-9.15 3.46-13 0.82-3.85 1.49-10.49 1.5-14.75 0.01-4.78-0.58-9.19-1.54-11.5-0.85-2.06-2.54-4.81-3.75-6.1-1.2-1.29-4.33-3.43-6.94-4.75-2.61-1.32-8.01-3.32-12-4.45-3.99-1.12-11.98-2.69-17.75-3.48-5.77-0.79-17.25-1.38-25.5-1.32-8.25 0.06-17.92 0.47-21.5 0.93zm244.75 1.04c-3.16 0.48-6.65 1.33-7.75 1.88-1.2 0.6-5.15 7.5-9.86 17.25-4.32 8.94-10.9 23.45-14.63 32.25-3.72 8.8-7.61 17.91-8.64 20.25-1.03 2.34-2.32 4.02-2.87 3.75-0.64-0.32-0.99-12.06-0.98-32.25 0.02-30.46-0.06-31.84-2-34-1.11-1.24-3.71-3.09-5.77-4.13-2.06-1.03-6.11-2.38-9-3-2.89-0.61-9.41-1.12-14.5-1.12-5.09 0.01-13.3 0.67-18.25 1.49-4.95 0.81-12.37 2.6-16.5 3.98-4.12 1.37-9.64 3.86-12.25 5.51-2.61 1.66-5.42 4.03-6.24 5.27-1.3 1.96-1.46 15.13-1.25 102.46 0.24 98.91 0.27 100.22 2.24 101.68 1.1 0.81 3.8 1.99 6 2.63 2.2 0.63 11.88 1.39 21.5 1.69 10.97 0.34 21.42 0.09 28-0.68 5.78-0.67 13.88-2.08 18-3.13q7.5-1.9 9.29-4.15c1.6-2 1.79-4.51 1.75-23l-0.04-20.75c6.59-9.22 8.95-11.91 9.5-11.93 0.55-0.02 7.08 12.41 14.5 27.63 7.42 15.22 14.74 29.38 16.25 31.48 1.51 2.1 4.33 4.5 6.25 5.32 1.92 0.82 5.41 1.49 7.75 1.48 2.34-0.01 6.95-0.72 10.25-1.58 3.3-0.86 9.6-3.25 14-5.32 4.4-2.06 11.15-5.68 15-8.03 3.85-2.36 10.04-6.71 13.75-9.67 3.71-2.96 8.11-7.29 9.78-9.63 1.91-2.68 3.02-5.45 3-7.5-0.02-1.79-1.42-5.84-3.12-9-1.7-3.16-5.58-9.35-8.63-13.75-3.05-4.4-9.71-13.18-14.81-19.5-5.09-6.32-13.59-16.34-18.87-22.25l-9.6-10.75c19.09-23.64 28.04-35 32.19-40.5 4.16-5.5 9.88-13.6 12.73-18 2.84-4.4 5.6-9.57 6.12-11.5 0.52-1.93 0.94-4.85 0.94-6.5 0-1.65-1.01-4.98-2.24-7.41-1.44-2.83-4.38-5.99-8.24-8.85-3.3-2.44-8.7-5.94-12-7.78-3.3-1.84-10.05-4.69-15-6.33-4.95-1.65-12.49-3.47-16.75-4.06-4.26-0.59-8.99-1.02-10.5-0.95-1.51 0.07-5.34 0.52-8.5 1zm-659.46 3.13c-1.12 1.24-2.49 3.15-3.04 4.25-0.55 1.1-2.05 6.27-3.34 11.5-2 8.15-2.33 12.06-2.35 27.5-0.01 14.2 0.36 19.37 1.77 24.5 0.98 3.57 2.54 7.3 3.47 8.28 1.54 1.61 3.9 1.78 24.45 1.75l22.75-0.03c0.02 107.34 0.36 139 0.77 139.61 0.4 0.61 2.08 1.8 3.73 2.65 1.65 0.84 7.05 2.03 12 2.63 4.95 0.61 14.06 1.11 20.25 1.11 6.19 0 15.64-0.47 21-1.04 5.36-0.57 13.35-1.94 17.75-3.04 4.4-1.1 8.58-2.55 9.29-3.21 1.04-0.97 1.29-14.94 1.25-69.96l-0.04-68.75c36.58 0.01 41.97-0.31 43.5-1.34 1.1-0.75 2.98-3.56 4.17-6.26 1.19-2.69 2.99-8.73 4-13.4 1.33-6.22 1.82-12.79 1.83-24.5 0-10.22-0.53-18.53-1.47-23-0.8-3.85-2.26-8.01-3.25-9.25l-1.78-2.25h-174.66zm241.2-0.75c-3.85 0.71-9.02 1.83-11.5 2.49-2.47 0.66-7.65 2.67-11.5 4.46-3.85 1.79-8.23 4.45-9.75 5.9l-2.75 2.65c-0.11 101.91-0.35 132.4-0.6 133.5-0.26 1.1-0.22 17.19 0.07 35.75 0.53 33.62 0.54 33.76 2.78 35.22 1.24 0.81 4.5 1.92 7.25 2.48 2.75 0.56 11.3 1.31 19 1.67 8.53 0.4 18.7 0.19 26-0.53 6.6-0.65 15.15-1.89 19-2.76 3.85-0.86 8.24-2.19 9.75-2.95l2.75-1.38 0.06-208.5c-3.53-3.31-5.91-4.94-7.56-5.76-1.65-0.82-5.36-2-8.25-2.62-2.88-0.62-10.31-1.07-16.5-1.01-6.18 0.06-14.4 0.68-18.25 1.39z"/>
</svg>