<svg version="1.2" xmlns="http://www.w3.org/2000/svg" viewBox="0 0 500 200" width="500" height="200">
	<style>
		.s0 { fill: #000000 } 
	</style>
	<path id="Path 0" class="s0" d="m82 56.94c-1.38 0.42-4.97 2.01-8 3.54-3.03 1.53-5.72 3.06-6 3.4-0.28 0.34-1.85 1.29-3.5 2.11-1.65 0.82-7.3 5.77-12.55 11-5.25 5.23-11.2 11.54-13.21 14.01-2.02 2.47-4.56 6.75-5.65 9.5-1.52 3.86-1.82 6.16-1.28 10.05 0.42 3.11 1.75 6.47 3.44 8.75 1.51 2.03 3.54 3.97 4.5 4.31 0.96 0.33 3.1 1.16 4.75 1.85 1.65 0.68 4.35 1.72 6 2.31 1.65 0.6 5.25 1.58 8 2.18 2.75 0.61 6.35 1.3 8 1.54 1.65 0.23 5.25 0.85 8 1.38 2.75 0.52 7.47 1.41 10.5 1.97 3.03 0.55 7.19 1.72 9.25 2.59 2.06 0.86 3.75 2.25 3.75 3.07 0 0.82-0.34 2.23-0.75 3.11-0.41 0.89-2.1 2.19-3.75 2.89-1.65 0.69-4.35 1.75-6 2.34-1.65 0.58-5.03 1.6-7.5 2.26-2.47 0.66-8.41 1.24-13.2 1.3-4.78 0.05-9.16 0.55-9.73 1.1-0.56 0.55-1.05 2.13-1.08 3.5-0.04 1.38 0.12 3.63 0.35 5 0.22 1.38 0.46 2.84 0.53 3.25 0.07 0.41 0.69 0.75 1.38 0.74 0.69 0 2.04 0.9 3 2 1.37 1.58 2.99 2.01 7.5 2.01 3.16 0 9.13-0.93 13.25-2.07 4.13-1.14 10.88-3.69 15-5.66 5.02-2.4 9.08-5.27 12.28-8.68 2.63-2.8 4.77-5.88 4.75-6.84-0.02-0.96 0.42-1.97 0.97-2.25 0.57-0.28 0.78-2.55 0.49-5.25-0.28-2.61-1.39-6.1-2.47-7.75-1.09-1.65-3-3.91-4.25-5.02-1.25-1.11-4.74-3.27-7.77-4.79-3.44-1.73-9.05-3.32-15-4.24-5.22-0.81-12.87-1.88-17-2.38-4.12-0.49-8.85-1.23-10.5-1.63-1.65-0.41-4.24-2.03-5.75-3.59-1.51-1.57-2.73-3.41-2.71-4.1 0.01-0.69 0.58-2.2 1.25-3.37 0.66-1.16 3.57-4.65 6.46-7.75 2.89-3.1 5.47-5.63 5.75-5.63 0.28 0 2.64-1.82 5.25-4.03 2.61-2.22 5.2-4.04 5.75-4.03 0.55 0.01 1.67-0.67 2.5-1.5 0.83-0.83 3.4-1.6 5.72-1.72 2.63-0.14 4.98-0.97 6.27-2.22 1.13-1.1 2.44-3.58 2.92-5.5 0.49-1.98 0.48-5.46-0.02-8-0.65-3.36-1.45-4.69-3.13-5.24-1.24-0.4-2.71-0.7-3.26-0.66-0.55 0.04-2.12 0.42-3.5 0.84zm355.74 3.31c-0.8 1.24-1.74 3.26-2.1 4.5-0.35 1.24-3.46 5.06-6.9 8.5-3.45 3.44-9.18 8.3-12.75 10.8-3.57 2.51-9.42 6.21-12.99 8.23-3.57 2.02-6.84 3.68-7.25 3.7-0.41 0.01-0.58-3.47-0.37-7.73 0.21-4.26 0.77-10.53 1.25-13.92l0.87-6.17c-6-5.73-8.5-7.16-10-7.16-1.43 0-3.46 1.1-4.75 2.57-1.28 1.45-2.53 4.59-2.91 7.25-0.36 2.57-1.86 11.88-3.34 20.68-1.51 9.02-2.86 21.56-3.09 28.75-0.22 7.01-0.75 12.76-1.16 12.77-0.41 0.01-1.2-0.48-1.75-1.09-0.73-0.79-1.69-0.76-3.5 0.11-1.38 0.67-3.85 0.95-5.5 0.63-2.23-0.43-4.16 0.14-7.5 2.21-3.67 2.26-6.26 2.94-14 3.62-5.23 0.47-11.52 0.99-14 1.16-2.48 0.16-7.43-0.17-11-0.75-3.57-0.58-9.88-2.02-14-3.21-4.65-1.33-9.24-3.49-12.08-5.67-2.52-1.94-6-5.56-7.73-8.03-2.73-3.9-3.16-5.37-3.2-11-0.05-5.85 0.28-6.95 3.3-11 1.85-2.47 5.1-5.62 7.24-7 2.14-1.37 6.6-3.95 9.93-5.73 3.32-1.77 7.05-3.24 8.29-3.25 1.24-0.01 3.6-0.69 5.25-1.52 1.65-0.83 5.36-1.58 8.25-1.69 2.89-0.1 5.81 0.12 6.5 0.5 0.69 0.38 1.14 1.7 1 2.94-0.19 1.69 0.62 2.68 3.25 4 1.93 0.96 5.3 1.76 7.5 1.78 2.53 0.02 5.27-0.81 7.45-2.25 1.9-1.25 4.08-3.86 4.84-5.78 1.27-3.21 1.19-3.92-0.95-8.5-2.16-4.62-2.76-5.13-7.84-6.68-3.02-0.92-7.3-2.2-9.5-2.86-2.28-0.67-6.58-0.94-10-0.63-3.3 0.3-8.25 1.07-11 1.71-2.75 0.63-6.57 1.51-8.5 1.94-1.93 0.43-6.88 2.44-11 4.48-4.13 2.03-8.92 4.45-10.65 5.37-1.73 0.92-5.85 3.92-9.15 6.67-3.3 2.75-7.12 7.03-8.48 9.5-1.37 2.47-3.04 7.2-3.7 10.5-1.04 5.14-0.96 7.01 0.53 13 0.96 3.85 2.53 8.8 3.49 11 0.96 2.2 3.71 6 6.1 8.43 2.4 2.44 6.42 5.37 8.93 6.5 2.51 1.14 5.21 2.57 6 3.19 0.79 0.61 4.36 2.01 7.93 3.12 4.3 1.33 9.71 2.06 16 2.17 5.23 0.08 15.12-0.54 22-1.4 6.87-0.86 14.75-1.96 17.5-2.44 2.75-0.49 6.98-1.49 9.4-2.23 2.42-0.74 5.59-2.46 7.04-3.84 1.46-1.37 3.88-3.62 5.4-5l2.75-2.5c-1.37 13.35-1.23 14.23 0.76 16.5 1.21 1.38 2.86 3.96 3.68 5.75 1.25 2.77 1.99 3.25 4.97 3.25 1.93 0 3.84-0.6 4.25-1.33 0.41-0.73 2.24-2.19 4.05-3.25 1.82-1.06 4.18-3.38 5.25-5.17 1.94-3.23 1.94-3.27-0.04-6.5-1.1-1.79-2.33-3.82-2.75-4.51-0.42-0.69-0.53-1.47-0.26-1.74 0.27-0.26 2.41 0.42 4.75 1.51 2.34 1.1 4.7 1.99 5.25 1.99 0.55 0 2.69 1 4.75 2.22 2.06 1.22 7.8 4.36 12.75 6.98 4.95 2.63 11.48 5.93 14.5 7.35 3.02 1.41 7.75 2.8 10.5 3.08 2.75 0.29 10.8-0.08 17.89-0.81 9.21-0.94 13.93-1.9 16.5-3.35 1.99-1.11 3.75-2.91 3.91-4 0.17-1.08-0.17-3.21-0.75-4.72-0.91-2.4-1.72-2.82-6.3-3.3-3.24-0.34-5.63-0.12-6.25 0.56-0.6 0.66-2.6 0.86-5 0.5-2.2-0.33-6.93-0.95-10.5-1.37-3.59-0.42-8.97-1.97-12-3.45-3.02-1.47-8.88-4.52-13-6.77-4.13-2.26-10.2-5.46-13.5-7.12-3.3-1.66-8.58-4.65-11.73-6.66-3.15-2-5.74-3.98-5.75-4.39-0.01-0.41 1.44-1.8 3.23-3.08 1.79-1.28 6.03-4.31 9.42-6.75 3.4-2.43 8.55-6 11.45-7.92 2.89-1.92 9.51-7.55 14.69-12.5 6.16-5.89 10.11-10.56 11.41-13.5 1.1-2.47 2.45-5.71 3-7.19 0.88-2.37 0.69-2.88-1.61-4.25-1.43-0.86-4.59-1.56-7.01-1.56-3.47 0-4.71 0.48-5.86 2.25zm-210.9 1.1c-0.68 0.75-3.54 1.57-6.35 1.84-2.81 0.26-5.76 1.17-6.55 2.01-0.8 0.86-4.97 2.08-9.44 2.76-4.4 0.68-11.37 1.6-15.5 2.05-4.12 0.45-8.4 1.08-9.5 1.41-1.1 0.33-8.97 1.06-17.5 1.64-8.53 0.57-18.65 1.42-22.5 1.88-3.85 0.46-11.05 1.5-16 2.32-4.95 0.81-10.68 2.1-12.74 2.86-2.62 0.96-3.91 2.13-4.3 3.88-0.3 1.38-0.13 3.63 0.38 5 0.51 1.38 1.77 3.31 2.8 4.31 1.54 1.5 2.97 1.72 8.36 1.28 3.58-0.3 8.97-0.93 12-1.41 3.03-0.47 6.16-1.05 6.97-1.27 0.86-0.24 2.12 0.83 3.04 2.59 1.21 2.29 1.75 7.71 2.26 23l0.68 20c5.27 10.85 7.76 15.01 8.93 16.25 1.22 1.3 3.28 2.24 4.87 2.22 1.51-0.02 5.32-1.48 8.45-3.25 3.14-1.77 6.78-4.79 8.08-6.72 1.82-2.68 2.3-4.55 2.05-8-0.18-2.47-0.57-5.18-0.88-6-0.42-1.15-1.68-1.38-5.45-1-4.54 0.46-4.94 0.32-5.65-2-0.41-1.37-0.85-4.75-0.97-7.5-0.13-2.75-0.49-10.17-0.81-16.5-0.32-6.33-0.82-11.72-1.11-12-0.28-0.28-0.5-0.95-0.49-1.5 0.01-0.55 2.95-1.56 6.53-2.25 3.57-0.69 8.41-1.25 10.75-1.25 2.34 0 7.4-0.67 11.25-1.48 3.85-0.82 8.8-1.48 11-1.48 2.2 0 5.35-0.64 7-1.42 1.65-0.79 5.25-1.75 8-2.13 2.93-0.41 6.55-0.25 8.75 0.4 2.84 0.84 3.77 1.66 3.85 3.36 0.06 1.24 0.04 3.83-0.04 5.75-0.08 1.92-0.85 7.1-1.72 11.5-1.14 5.77-1.42 11.07-1.02 19 0.54 10.54 0.71 11.22 4.12 16.25 1.96 2.89 4.69 5.7 6.06 6.25 1.38 0.55 4.64 1.01 7.25 1.03 3.28 0.03 5.28-0.52 6.47-1.75 0.95-0.98 1.74-2.57 1.75-3.53 0.02-0.96-1.09-4-2.47-6.75-1.37-2.75-3.18-5-4-5-1.02 0-1.73-1.51-2.21-4.75-0.4-2.61-0.65-5.65-0.56-6.75 0.09-1.1 0.44-5.6 0.79-10 0.36-4.4 1.01-10.92 1.47-14.5 0.45-3.58 0.46-9.42 0.02-13-0.45-3.58-1.22-7.7-1.73-9.16-0.5-1.47-1.9-2.93-3.1-3.25-1.2-0.33-2.17-1.15-2.15-1.84 0.02-0.69-0.77-2.03-1.75-2.97-0.98-0.95-2.77-1.74-3.99-1.75-1.21-0.02-2.77 0.58-3.45 1.32z"/>
</svg>