<svg version="1.2" xmlns="http://www.w3.org/2000/svg" viewBox="0 0 1380 768" width="1380" height="768">
	<style>
		.s0 { fill: #050505 } 
	</style>
	<g id="레이어 1">
		<path id="Path 0" fill-rule="evenodd" class="s0" d="m711.5 138.63c387.34 0.17 429.44 0.34 433.5 1.76 2.47 0.87 6.46 3.27 8.85 5.34 2.45 2.12 5.49 6.17 9.58 14.77l0.03 141.5c0.01 77.83-0.29 143.07-0.67 145-0.57 2.9-1.86 4.29-7.49 8.12-3.74 2.54-16.25 10.68-27.8 18.1-11.55 7.41-34.05 21.71-50 31.77-15.95 10.06-33.95 21.45-40 25.32-6.05 3.86-26.3 16.72-45 28.57-18.7 11.84-37.15 23.13-48 28.62l-793 1.55-5.38-5.55 0.47-206c0.25-113.3 0.75-209.82 1.1-214.5 0.6-8.17 0.81-8.73 5.23-14.5 3.24-4.22 5.79-6.45 8.59-7.5 3.32-1.25 13.86-1.59 62.49-2.02 32.18-0.29 251.55-0.45 487.5-0.35zm-549.45 15.87c-1.19 1.1-2.54 3.57-3.02 5.5-0.47 1.93-0.97 41.07-1.12 87-0.14 45.93-0.18 138.74-0.08 206.25l0.17 122.75c698.36-0.04 783.02-0.31 784.91-1.27 1.39-0.71 2.98-2.92 3.77-5.23 0.76-2.2 1.84-6.92 2.42-10.5 0.57-3.58 1.35-30.66 1.72-60.2 0.53-42.01 0.96-53.98 1.98-55 1.05-1.05 20.51-1.35 99.75-1.55l98.45-0.25c-0.09-213.51-0.51-277.75-0.99-280.5-0.57-3.28-1.76-5.86-3.46-7.5l-2.6-2.5c-749-0.15-969.44 0.08-973.1 0.4-4.66 0.42-7.29 1.2-8.8 2.6zm800.1 323.36c0.33 11.9 0.22 32.89-0.23 46.64-0.46 13.75-1.19 28.49-1.62 32.76-0.68 6.58-0.57 7.76 0.7 7.77 0.83 0 4.65-2.1 8.5-4.68 3.85-2.58 12.51-8.1 19.24-12.27 6.73-4.17 19.33-12.14 28-17.71 8.67-5.57 24.98-15.97 36.26-23.09 11.28-7.13 31.08-19.6 44-27.72 12.92-8.11 26.65-16.92 30.5-19.57 3.85-2.64 7.11-5.3 7.25-5.9 0.18-0.78-24.21-1.09-85.77-1.09-78.08 0-86.09 0.15-86.73 1.61-0.38 0.88-0.43 11.34-0.1 23.25zm-672.4-260.71c16.66-0.12 24.01 0.27 34 1.8 7.01 1.08 15.68 2.85 19.25 3.95 3.57 1.09 8.15 2.57 10.16 3.29 2.01 0.72 5.06 2.66 6.77 4.31 2.76 2.66 3.11 3.63 3.07 8.5-0.02 3.02-0.74 8.2-1.6 11.5-0.87 3.3-2.49 8.25-3.6 11-1.12 2.75-2.57 6.12-3.22 7.5-0.65 1.37-2.06 3.94-3.13 5.71-1.07 1.76-2.96 3.67-4.2 4.25-1.58 0.73-3.66 0.71-7-0.08-2.61-0.62-8.57-2.48-13.25-4.14-7.7-2.73-9.73-3.02-21.67-3.13-11.92-0.1-13.44 0.09-16 1.99-2.1 1.56-2.92 3.11-3.17 6-0.28 3.25 0.13 4.32 2.5 6.43 1.56 1.39 6.22 3.81 10.34 5.37 4.13 1.57 9.52 3.7 12 4.75 2.48 1.04 4.95 1.9 5.5 1.89 0.55 0 3.93 1.28 7.5 2.86 3.57 1.57 7.63 3.38 9 4.02 1.38 0.64 3.4 1.7 4.5 2.37 1.1 0.67 4.02 2.62 6.5 4.34 2.48 1.72 6.54 5.32 9.03 8 2.49 2.68 5.62 6.67 6.95 8.87 1.33 2.2 3.24 6.7 4.25 10 1.01 3.3 2.11 9.82 2.43 14.5 0.49 6.9 0.18 10.2-1.65 17.5-1.24 4.95-3.29 11.02-4.56 13.5-1.27 2.47-4.25 6.7-6.63 9.39-2.38 2.69-7.02 6.84-10.32 9.21-3.3 2.38-6.79 4.34-7.75 4.36-0.96 0.02-1.98 0.49-2.25 1.04-0.27 0.55-3.54 1.86-7.25 2.92-3.71 1.05-12.04 2.63-18.5 3.5-6.46 0.87-17.26 1.57-24 1.56-6.74-0.01-19.45-0.88-28.25-1.93-8.8-1.05-20.5-3.1-26-4.57-5.5-1.46-11.79-3.4-13.97-4.32-2.18-0.91-5.28-2.79-6.88-4.16-1.61-1.38-3.53-3.74-4.28-5.25-0.76-1.51-1.37-5.68-1.37-9.25 0-3.58 0.87-10.21 1.93-14.75 1.06-4.54 2.83-10.73 3.95-13.75 1.11-3.03 2.99-6.4 4.17-7.5 1.56-1.45 3.3-1.93 6.3-1.76 2.28 0.13 7.75 1.53 12.15 3.11 4.4 1.57 12.72 4.35 18.5 6.16 7.92 2.48 12.95 3.41 20.5 3.77 8.19 0.39 10.63 0.16 13.5-1.27 1.93-0.96 4.3-2.48 5.28-3.38 0.98-0.9 1.77-2.87 1.75-4.38-0.02-1.59-1.19-3.97-2.78-5.66-1.51-1.6-6.69-4.75-11.5-7-4.81-2.25-9.31-4.08-10-4.08-0.69 0.01-3.61-1.11-6.5-2.5-2.89-1.38-5.59-2.51-6-2.51-0.41 0-4.94-2.13-10.05-4.75-5.12-2.61-12.21-6.89-15.75-9.5-4.36-3.21-7.87-6.94-10.84-11.5-2.42-3.72-5.4-10.12-6.64-14.25-1.92-6.45-2.17-9.11-1.77-19 0.3-7.46 1.09-13.26 2.25-16.5 0.98-2.75 2.74-7.03 3.9-9.5 1.17-2.48 4.15-6.55 6.64-9.05 2.48-2.5 6.08-5.68 8.01-7.08 1.93-1.39 6.76-3.96 10.75-5.7 3.99-1.74 10.51-3.82 14.5-4.62 3.99-0.8 8.6-1.63 10.25-1.85 1.65-0.22 12.56-0.47 24.25-0.55zm476.25-0.06c13.24-0.09 20.18 0.36 28.5 1.82 6.05 1.07 13.02 2.67 15.5 3.57 2.48 0.9 6.41 3.19 8.75 5.08 2.71 2.19 4.66 4.8 5.38 7.19 0.67 2.2 0.94 7.47 0.66 12.75-0.33 6.21-1.36 11.64-3.32 17.5-1.57 4.67-3.78 9.94-4.91 11.71-1.13 1.77-2.96 3.72-4.06 4.34-1.1 0.62-3.8 1.16-6 1.19-2.2 0.03-6.92-0.85-10.5-1.97-3.58-1.12-9.42-2.87-13-3.9-4.2-1.21-9.69-1.87-15.5-1.87-6.65 0.01-9.85 0.46-12.25 1.75-1.79 0.96-4.32 2.76-5.63 4-1.31 1.24-3.43 4.27-4.7 6.75-1.28 2.47-2.89 7.2-3.59 10.5-0.69 3.3-1.28 11.85-1.29 19-0.02 7.15 0.57 16.15 1.3 20 0.74 3.85 2.26 8.8 3.38 11 1.11 2.2 3.66 5.46 5.65 7.25 2.07 1.86 5.24 3.53 7.38 3.89 2.06 0.35 7.13 0.39 11.25 0.08 4.13-0.31 9.52-1.27 12-2.14 2.48-0.87 8.44-2.93 13.25-4.58 4.81-1.65 10.44-3.01 12.5-3.02 2.95-0.01 4.41 0.68 6.84 3.25 1.7 1.8 3.8 4.84 4.66 6.77 0.86 1.92 2.57 6.42 3.79 10 1.38 4.06 2.38 9.88 2.65 15.5 0.4 7.97 0.18 9.51-1.87 13.45-1.37 2.63-4.16 5.7-6.82 7.52-2.48 1.69-7.65 4.02-11.5 5.19-3.85 1.16-10.37 2.73-14.5 3.48-4.7 0.85-14.97 1.36-27.5 1.36-12.51 0-22.81-0.51-27.5-1.36-4.12-0.75-9.75-2.05-12.5-2.9-2.75-0.85-8.15-3-12-4.78-3.85-1.78-8.11-4.07-9.47-5.1-1.36-1.02-6.31-5.69-11-10.36-4.69-4.68-9.2-9.4-10.03-10.5-0.83-1.1-2.92-4.7-4.67-8-1.74-3.3-4.59-10.28-6.32-15.5-2.14-6.43-3.5-13.06-4.19-20.5-0.57-6.17-0.74-18.25-0.37-27.5 0.61-15.57 0.87-17.17 4.55-28.5 2.15-6.6 5.05-13.69 6.45-15.75 1.4-2.06 2.57-4.09 2.59-4.5 0.02-0.41 1.69-3 3.72-5.75 2.02-2.75 5.94-7.42 8.71-10.37 2.77-2.95 8.86-7.91 13.53-11.01 4.67-3.1 10.08-6.24 12-6.96 1.92-0.73 6.42-2.37 10-3.66 3.58-1.28 10.1-3 14.5-3.82 4.92-0.91 14.75-1.53 25.5-1.59zm201 0.06c0.83-0.04 6 0.73 11.5 1.71 5.5 0.99 13.6 3.32 18 5.18 4.4 1.86 11.15 5.49 15 8.07 4.86 3.25 7.73 6.02 9.4 9.04 1.31 2.39 2.36 5.7 2.33 7.35-0.03 1.65-0.58 4.35-1.22 6-0.64 1.65-4.02 7.27-7.52 12.5-3.5 5.22-12.3 16.92-19.55 26-7.26 9.07-13.81 17.51-14.56 18.75-1.26 2.05-1.08 2.62 2.05 6.5 1.88 2.34 8.92 10.77 15.63 18.75 6.72 7.97 14.29 17.65 16.83 21.5 2.53 3.85 5.17 7.56 5.86 8.25 0.69 0.69 1.25 1.92 1.25 2.75 0 0.82 0.47 1.61 1.04 1.75 0.58 0.14 1.42 1.82 1.88 3.75 0.45 1.92 0.57 4.85 0.24 6.5-0.35 1.84-2.82 5.22-6.37 8.75-3.18 3.16-9.05 7.63-13.04 9.93-3.99 2.3-7.92 4.68-8.75 5.3-0.83 0.61-4.87 2.52-9 4.25-4.12 1.72-9.86 3.61-12.75 4.2-3.6 0.73-6.58 0.75-9.5 0.06-2.34-0.56-5.37-2.16-6.75-3.56-1.37-1.41-8.12-13.67-15-27.24-6.87-13.58-13.06-24.69-13.75-24.69-0.68 0-2.83 2.25-8.29 10l0.04 36.5-2.75 1.91c-1.51 1.06-7.36 2.86-13 4-7.92 1.61-13.95 2.09-26.5 2.08-8.94 0-18.95-0.44-22.25-0.97-4.29-0.7-6.51-1.62-7.79-3.25-1.7-2.14-1.79-7.05-1.63-175.27l3.46-3.25c1.9-1.79 4.25-3.25 5.21-3.24 0.96 0 2.65-0.62 3.75-1.38 1.1-0.76 5.6-2.4 10-3.63 6.6-1.85 10.63-2.25 23-2.3 13.95-0.06 15.34 0.11 19.89 2.37 2.69 1.34 5.59 3.55 6.44 4.93 1.26 2.03 1.66 7.53 2.11 29.25 0.31 14.72 0.79 26.75 1.06 26.75 0.27 0 1.45-1.91 2.61-4.25 1.17-2.34 3.82-8.3 5.91-13.25 2.08-4.95 5.11-11.93 6.72-15.5 1.62-3.58 5.48-11.62 8.6-17.87 4.18-8.4 6.31-11.62 8.16-12.33 1.38-0.53 4.3-1.33 6.5-1.77 2.2-0.45 4.67-0.84 5.5-0.88zm-575.66 1.84l152.1 0.51 1.98 5c1.73 4.34 2 7.46 2.03 23.5 0.05 17.37-0.11 19.02-2.64 27-1.47 4.67-3.5 9.3-4.5 10.28-1.54 1.51-4.52 1.89-38.06 3.22l-0.38 58.71c-0.32 50.51-0.58 58.93-1.87 60.23-0.83 0.83-5.1 2.45-9.5 3.6-6.92 1.81-11.05 2.11-30.5 2.19-20.95 0.08-22.81-0.06-31.5-4.16l-0.75-28.79c-0.41-15.83-0.75-43.07-0.75-92.28l-15.75-0.07c-8.66-0.04-17.76-0.38-20.22-0.75-4.24-0.65-4.57-0.93-6.43-5.68-1.57-4.02-2.03-8.14-2.34-21-0.35-14.38-0.15-16.96 2.02-25.5 1.32-5.23 3.45-10.97 4.73-12.76zm229.66 0.76c5.22 0.28 10.62 0.94 12 1.46 1.37 0.51 3.96 2.03 9 5.8v180l-2.75 1.41c-1.51 0.77-6.58 2.14-11.25 3.03-6.63 1.27-13.45 1.56-31 1.34-17.67-0.22-23.14-0.61-28.5-3.31l-0.29-87.99c-0.27-83.41-0.19-88.07 1.5-89.6 0.99-0.9 3.81-2.73 6.29-4.09 2.47-1.36 7.42-3.5 11-4.77 3.58-1.26 10.55-2.63 15.5-3.04 4.95-0.42 13.27-0.52 18.5-0.24z"/>
	</g>
</svg>